<svg width="34" height="34" viewBox="0 0 34 34" fill="none" xmlns="http://www.w3.org/2000/svg">
<path d="M17 32.9375C25.802 32.9375 32.9375 25.802 32.9375 17C32.9375 8.19796 25.802 1.0625 17 1.0625C8.19796 1.0625 1.0625 8.19796 1.0625 17C1.0625 25.802 8.19796 32.9375 17 32.9375Z" fill="#7A1E2C"/>
<path d="M10.2423 23.25V21.9878C10.5356 21.975 10.7778 21.9367 10.9691 21.873C11.1731 21.8092 11.3261 21.6626 11.4281 21.4331C11.5428 21.2036 11.6002 20.8339 11.6002 20.3239V12.999C11.6002 12.6547 11.6066 12.3232 11.6193 12.0045C11.6448 11.6857 11.6639 11.4435 11.6767 11.2777C11.4727 11.2905 11.2177 11.3032 10.9117 11.316C10.6057 11.316 10.3826 11.3224 10.2423 11.3351V9.8625H15.7312V11.1247C15.4507 11.1375 15.2084 11.1757 15.0044 11.2395C14.8004 11.3032 14.6411 11.4499 14.5263 11.6794C14.4243 11.8961 14.3733 12.2659 14.3733 12.7886V15.6956H15.7503L17.2229 13.1902C17.4397 12.8077 17.6692 12.4252 17.9114 12.0427C18.1537 11.6602 18.3577 11.3989 18.5234 11.2586C18.3194 11.2714 18.1027 11.2841 17.8732 11.2969C17.6437 11.3096 17.4588 11.3224 17.3186 11.3351V9.8625H22.0042V11.1247C21.7237 11.1375 21.4177 11.1885 21.0862 11.2777C20.7674 11.367 20.4359 11.5455 20.0917 11.8132C19.7474 12.081 19.3968 12.5017 19.0398 13.0755L17.2038 16.0207C17.4588 16.1865 17.6819 16.365 17.8732 16.5562C18.0772 16.7347 18.2557 16.9324 18.4087 17.1491L20.3786 19.9222C20.6336 20.2792 20.8949 20.6171 21.1627 20.9359C21.4432 21.2419 21.7301 21.4905 22.0233 21.6817C22.3166 21.873 22.6034 21.975 22.8839 21.9878V23.25H19.9387C19.8367 23.2372 19.6709 23.1225 19.4414 22.9057C19.2119 22.689 18.9697 22.4276 18.7147 22.1216C18.4597 21.8156 18.2429 21.5415 18.0644 21.2992L16.1711 18.5452C16.0053 18.303 15.8204 18.0544 15.6164 17.7994C15.4252 17.5444 15.2403 17.3531 15.0618 17.2256H14.3733V20.1135C14.3733 20.4577 14.3669 20.7892 14.3542 21.108C14.3414 21.4267 14.3223 21.669 14.2968 21.8347C14.5008 21.8092 14.7558 21.7965 15.0618 21.7965C15.3806 21.7837 15.6037 21.7774 15.7312 21.7774V23.25H10.2423Z" fill="#B89150"/>
<path d="M16.9992 32.2992C25.4492 32.2992 32.2992 25.4492 32.2992 16.9992C32.2992 8.54926 25.4492 1.69922 16.9992 1.69922C8.54926 1.69922 1.69922 8.54926 1.69922 16.9992C1.69922 25.4492 8.54926 32.2992 16.9992 32.2992Z" stroke="#B89150" stroke-width="0.6375"/>
</svg>
